<?xml version="1.0" encoding="UTF-8"?>
<svg id="Layer_3" data-name="Layer 3" xmlns="http://www.w3.org/2000/svg" xmlns:xlink="http://www.w3.org/1999/xlink" viewBox="0 0 144 144">
  <defs>
    <style>
      .cls-1 {
        stroke: #a7d27c;
        stroke-miterlimit: 10;
      }

      .cls-1, .cls-2 {
        fill: none;
      }

      .cls-3 {
        fill: #67a25c;
      }

      .cls-4 {
        clip-path: url(#clippath);
      }
    </style>
    <clipPath id="clippath">
      <rect class="cls-2" width="144" height="144"/>
    </clipPath>
  </defs>
  <rect class="cls-3" width="144" height="144"/>
  <g class="cls-4">
    <g>
      <g>
        <path class="cls-1" d="M70.91,31.07s9.85-55.93-9.32-52.53c-18.27,3.24,9.32,52.53,9.32,52.53Z"/>
        <line class="cls-1" x1="68.33" y1="15.34" x2="60.14" y2="-30.82"/>
      </g>
      <g>
        <path class="cls-1" d="M-22.89,42.37S-6.17,108.9,16.19,90.88c21.31-17.17-39.08-48.51-39.08-48.51Z"/>
        <line class="cls-1" x1="-11.45" y1="57.05" x2="22.89" y2="99.68"/>
      </g>
      <g>
        <path class="cls-1" d="M39.13,107.34s-96.65,2.22-53.52,49.17c41.11,44.74,53.52-49.17,53.52-49.17Z"/>
        <line class="cls-1" x1="22.7" y1="121.53" x2="-24.33" y2="164.74"/>
      </g>
      <g>
        <path class="cls-1" d="M35.66,22.55s-28.72,33.67,0,33.67,0-33.67,0-33.67Z"/>
        <line class="cls-1" x1="35.36" y1="32.61" x2="35.36" y2="62.19"/>
      </g>
      <g>
        <path class="cls-1" d="M99.17,30.89s-68.1,45.7-28.53,63.48c37.7,16.95,28.53-63.48,28.53-63.48Z"/>
        <line class="cls-1" x1="90.23" y1="49.67" x2="65.16" y2="105.45"/>
      </g>
      <g>
        <path class="cls-1" d="M39.13-36.67S-57.52-34.44-14.38,12.5C26.73,57.25,39.13-36.67,39.13-36.67Z"/>
        <line class="cls-1" x1="22.7" y1="-22.47" x2="-24.33" y2="20.74"/>
      </g>
      <g>
        <path class="cls-1" d="M183.13-36.67s-96.65,2.22-53.52,49.17c41.11,44.74,53.52-49.17,53.52-49.17Z"/>
        <line class="cls-1" x1="166.7" y1="-22.47" x2="119.66" y2="20.74"/>
      </g>
      <g>
        <path class="cls-1" d="M183.13,107.34s-96.65,2.22-53.52,49.17c41.11,44.74,53.52-49.17,53.52-49.17Z"/>
        <line class="cls-1" x1="166.7" y1="121.53" x2="119.66" y2="164.74"/>
      </g>
      <g>
        <path class="cls-1" d="M121.11,42.37s16.72,66.53,39.08,48.51c21.31-17.17-39.08-48.51-39.08-48.51Z"/>
        <line class="cls-1" x1="132.55" y1="57.05" x2="166.89" y2="99.68"/>
      </g>
      <g>
        <path class="cls-1" d="M108.94,123.16s-28.72-33.67,0-33.67,0,33.67,0,33.67Z"/>
        <line class="cls-1" x1="108.64" y1="113.1" x2="108.64" y2="83.52"/>
      </g>
      <g>
        <path class="cls-1" d="M70.91,175.07s9.85-55.93-9.32-52.53c-18.27,3.24,9.32,52.53,9.32,52.53Z"/>
        <line class="cls-1" x1="68.33" y1="159.34" x2="60.14" y2="113.18"/>
      </g>
      <g>
        <path class="cls-1" d="M39.09,85.89s-1.02,18.03,7.61,12.96c8.23-4.83-7.61-12.96-7.61-12.96Z"/>
        <line class="cls-1" x1="43.28" y1="93.23" x2="47.96" y2="101.2"/>
      </g>
      <g>
        <path class="cls-1" d="M81.26,130.61s16.49-7.35,8.04-12.7-8.04,12.7-8.04,12.7Z"/>
        <line class="cls-1" x1="85.87" y1="123.52" x2="90.81" y2="115.71"/>
      </g>
      <g>
        <path class="cls-1" d="M88.13-4.11s7.49,16.43,12.77,7.93c5.03-8.1-12.77-7.93-12.77-7.93Z"/>
        <line class="cls-1" x1="95.26" y1=".44" x2="103.11" y2="5.31"/>
      </g>
      <path class="cls-1" d="M88.13,139.89s7.49,16.43,12.77,7.93c5.03-8.1-12.77-7.93-12.77-7.93Z"/>
      <g>
        <path class="cls-1" d="M7.78,32.71s-17.99-1.53-13.17,7.24c4.59,8.36,13.17-7.24,13.17-7.24Z"/>
        <line class="cls-1" x1=".32" y1="36.69" x2="-7.78" y2="41.14"/>
      </g>
      <g>
        <path class="cls-1" d="M151.78,32.71s-17.99-1.53-13.17,7.24c4.59,8.36,13.17-7.24,13.17-7.24Z"/>
        <line class="cls-1" x1="144.32" y1="36.69" x2="136.22" y2="41.14"/>
      </g>
    </g>
  </g>
</svg>