<?xml version="1.0" encoding="UTF-8"?>
<svg id="Layer_2" data-name="Layer 2" xmlns="http://www.w3.org/2000/svg" viewBox="0 0 144 144">
  <defs>
    <style>
      .cls-1 {
        fill: #a7d27c;
      }
    </style>
  </defs>
  <path class="cls-1" d="M51.07,126.47c39.29-13.49,16.5-48.21,11.38-49.43-7.94,10.23-25.55,12.16-33.78,7.54C-1.85,67.42,11.67,28.86,16.81,13.54c3.44,16.12,18.23,24.58,35.09,30.36,9.75,3.34,17.42,16.3,17.42,16.3,0,0,8.55-16.18,14.37-20.58,9.67-7.32,30.28,3.78,48.82-27.72,1.95,16.54,6.65,37.22-10.08,55.71-9.63,10.64-30.93,13.23-41.15,10.14,8.37,5.73,23.61,41.75,5.9,50.01-6.87.05-15.02,4.39-20.17,4.33-4.23-.05-8.18-1.15-15.95-5.63Z"/>
</svg>